<svg id="visual" viewBox="0 0 960 540" width="960" height="540" xmlns="http://www.w3.org/2000/svg" xmlns:xlink="http://www.w3.org/1999/xlink" version="1.1"><rect width="960" height="540" fill="#fefefe"></rect><g><g transform="translate(684 109)"><path d="M25.4 -8.1C29.5 4.3 27 19 17.6 26.4C8.2 33.7 -8.2 33.7 -18 26.3C-27.8 18.8 -31.1 3.8 -27 -8.6C-22.9 -21.1 -11.4 -30.9 -0.4 -30.8C10.7 -30.7 21.4 -20.6 25.4 -8.1Z" stroke="#ebebeb" fill="none" stroke-width="20"></path></g><g transform="translate(357 500)"><path d="M15.4 -5.1C17.6 1.8 15.4 10 10.1 13.7C4.9 17.5 -3.4 16.7 -8.5 12.8C-13.6 8.8 -15.6 1.5 -13.6 -5C-11.7 -11.5 -5.8 -17.4 0.4 -17.5C6.6 -17.6 13.2 -12 15.4 -5.1Z" stroke="#ebebeb" fill="none" stroke-width="20"></path></g><g transform="translate(77 22)"><path d="M16.5 -4.7C18.7 1.4 16 9.9 10.3 13.9C4.7 17.9 -3.9 17.6 -9.7 13.4C-15.4 9.2 -18.4 1.1 -16.3 -4.8C-14.2 -10.8 -7.1 -14.6 0 -14.6C7.1 -14.6 14.3 -10.8 16.5 -4.7Z" stroke="#ebebeb" fill="none" stroke-width="20"></path></g><g transform="translate(14 478)"><path d="M21.8 -7.7C24.2 0.4 19.4 10.3 11.9 15.5C4.4 20.8 -5.8 21.5 -12.3 16.8C-18.7 12.2 -21.4 2.2 -18.7 -6.3C-16 -14.8 -8 -21.8 0.8 -22C9.7 -22.3 19.4 -15.9 21.8 -7.7Z" stroke="#ebebeb" fill="none" stroke-width="20"></path></g><g transform="translate(779 462)"><path d="M19.9 -7.2C22.3 0.9 18.3 10.3 11.6 14.9C4.9 19.5 -4.5 19.3 -10.9 14.7C-17.3 10.2 -20.7 1.2 -18.4 -6.8C-16 -14.7 -8 -21.6 0.4 -21.7C8.8 -21.8 17.5 -15.2 19.9 -7.2Z" stroke="#ebebeb" fill="none" stroke-width="20"></path></g><g transform="translate(221 326)"><path d="M16.4 -4.7C18.6 1.3 15.7 9.5 10 13.6C4.3 17.7 -4.2 17.6 -9.9 13.5C-15.6 9.4 -18.5 1.2 -16.4 -4.7C-14.2 -10.7 -7.1 -14.5 0 -14.5C7.2 -14.5 14.3 -10.8 16.4 -4.7Z" stroke="#ebebeb" fill="none" stroke-width="20"></path></g><g transform="translate(606 438)"><path d="M9 -2.6C10.1 0.6 8.5 5.1 5.6 7.1C2.6 9.1 -1.7 8.7 -4.9 6.4C-8 4.2 -10.1 0.1 -9.1 -2.9C-8.1 -6 -4.1 -8 -0.1 -8C3.9 -8 7.8 -5.9 9 -2.6Z" stroke="#ebebeb" fill="none" stroke-width="20"></path></g><g transform="translate(844 177)"><path d="M20.5 -6.1C23.1 1.6 19.6 11.8 12.3 17.1C5.1 22.4 -5.9 22.8 -12.8 17.7C-19.7 12.7 -22.7 2.2 -19.9 -5.7C-17 -13.5 -8.5 -18.8 0.2 -18.8C8.9 -18.9 17.8 -13.8 20.5 -6.1Z" stroke="#ebebeb" fill="none" stroke-width="20"></path></g><g transform="translate(827 52)"><path d="M11.3 -3.2C13 1.7 11.7 8 7.8 10.9C3.8 13.7 -2.7 13.2 -7.1 10C-11.5 6.8 -13.7 0.8 -12.2 -3.8C-10.6 -8.4 -5.3 -11.7 -0.3 -11.6C4.8 -11.5 9.5 -8.1 11.3 -3.2Z" stroke="#ebebeb" fill="none" stroke-width="20"></path></g><g transform="translate(289 201)"><path d="M4.3 -1.5C4.7 0.1 3.8 2 2.3 3C0.8 4.1 -1.3 4.3 -2.6 3.4C-3.9 2.5 -4.5 0.4 -3.9 -1.2C-3.4 -2.9 -1.7 -4.1 0.1 -4.1C1.9 -4.1 3.8 -3 4.3 -1.5Z" stroke="#ebebeb" fill="none" stroke-width="20"></path></g><g transform="translate(956 263)"><path d="M20.2 -5.7C22.9 1.9 19.6 12.2 12.6 17.3C5.6 22.4 -5.2 22.3 -12.3 17.1C-19.4 11.9 -22.7 1.7 -20 -5.8C-17.3 -13.3 -8.7 -18.1 0 -18.2C8.7 -18.2 17.4 -13.3 20.2 -5.7Z" stroke="#ebebeb" fill="none" stroke-width="20"></path></g><g transform="translate(140 457)"><path d="M14 -4.3C15.8 1.2 13.5 8.2 8.5 11.9C3.5 15.6 -4.2 16 -9.4 12.4C-14.5 8.7 -17.1 1.2 -15.2 -4.5C-13.2 -10.2 -6.6 -13.9 -0.3 -13.8C6.1 -13.7 12.1 -9.8 14 -4.3Z" stroke="#ebebeb" fill="none" stroke-width="20"></path></g></g></svg>